<svg width="147" height="132" viewBox="0 0 147 132" fill="none" xmlns="http://www.w3.org/2000/svg">
<path fill-rule="evenodd" clip-rule="evenodd" d="M133.582 39.2309L146.94 25.0778C146.94 25.0778 128.168 16.2591 115.509 0.587341H100.779C89.1513 16.3502 71.552 25.3693 71.552 25.3693L85.5016 38.9394L98.5645 25.5111C98.6388 31.7994 98.6837 37.8514 98.5979 43.8026C98.413 56.6341 97.6044 78.4875 95.3889 87.2379C93.1981 95.8905 89.8325 101.717 85.0946 105.504C80.3788 109.273 73.0607 112.014 60.9839 112.014C57.079 112.014 51.9262 111.958 46.5967 110.817C47.7507 109.111 48.8203 107.278 49.7987 105.308C54.7086 95.424 57.0528 82.6681 57.0528 66.5536C57.0528 65.3046 57.0558 64.0556 57.0614 62.8067C57.0972 52.2635 57.1408 39.399 54.9189 28.9026C53.6577 22.9448 51.4618 16.603 47.2236 11.6176C42.6286 6.21245 36.1925 3.0781 28.3035 3.0781C20.4065 3.0781 13.9688 6.22221 9.41091 11.6886C5.22403 16.7099 3.1217 23.0805 1.94246 29.0241C-0.048134 39.0571 0.0281246 51.3385 0.091653 61.5695C0.102373 63.2962 0.11273 64.9644 0.11273 66.5536C0.11273 104.282 20.8127 131.493 60.9839 131.475C75.9627 131.475 88.0589 128.049 97.2459 120.705C106.411 113.379 111.436 103.146 114.255 92.0146C117.048 80.9807 117.867 57.2645 118.057 44.0831C118.146 37.9288 118.094 31.3196 118.015 24.5387L133.582 39.2309ZM29.451 101.319C30.5186 99.9623 31.4916 98.4174 32.3694 96.6503C35.4482 90.4523 37.5917 81.0192 37.5917 66.5536C37.5917 65.3189 37.5934 64.0841 37.5967 62.8495C37.619 51.8834 37.6406 41.2519 35.8796 32.9329C34.9149 28.3756 33.6206 25.6629 32.3962 24.2226C31.5285 23.2019 30.5297 22.5393 28.3035 22.5393C26.0852 22.5393 25.1578 23.1922 24.3579 24.1516C23.1869 25.556 21.9386 28.2399 21.0315 32.8114C19.4611 40.7268 19.5078 50.6477 19.5567 61.0455C19.5653 62.8696 19.5739 64.7084 19.5739 66.5536C19.5739 84.8226 24.0628 95.2043 29.451 101.319Z" fill="url(#paint0_linear_1268_2433)"/>
<path fill-rule="evenodd" clip-rule="evenodd" d="M133.582 39.2309L146.94 25.0778C146.94 25.0778 128.168 16.2591 115.509 0.587341H100.779C89.1513 16.3502 71.552 25.3693 71.552 25.3693L85.5016 38.9394L98.5645 25.5111C98.6388 31.7994 98.6837 37.8514 98.5979 43.8026C98.413 56.6341 97.6044 78.4875 95.3889 87.2379C93.1981 95.8905 89.8325 101.717 85.0946 105.504C80.3788 109.273 73.0607 112.014 60.9839 112.014C57.079 112.014 51.9262 111.958 46.5967 110.817C47.7507 109.111 48.8203 107.278 49.7987 105.308C54.7086 95.424 57.0528 82.6681 57.0528 66.5536C57.0528 65.3046 57.0558 64.0556 57.0614 62.8067C57.0972 52.2635 57.1408 39.399 54.9189 28.9026C53.6577 22.9448 51.4618 16.603 47.2236 11.6176C42.6286 6.21245 36.1925 3.0781 28.3035 3.0781C20.4065 3.0781 13.9688 6.22221 9.41091 11.6886C5.22403 16.7099 3.1217 23.0805 1.94246 29.0241C-0.048134 39.0571 0.0281246 51.3385 0.091653 61.5695C0.102373 63.2962 0.11273 64.9644 0.11273 66.5536C0.11273 104.282 20.8127 131.493 60.9839 131.475C75.9627 131.475 88.0589 128.049 97.2459 120.705C106.411 113.379 111.436 103.146 114.255 92.0146C117.048 80.9807 117.867 57.2645 118.057 44.0831C118.146 37.9288 118.094 31.3196 118.015 24.5387L133.582 39.2309ZM29.451 101.319C30.5186 99.9623 31.4916 98.4174 32.3694 96.6503C35.4482 90.4523 37.5917 81.0192 37.5917 66.5536C37.5917 65.3189 37.5934 64.0841 37.5967 62.8495C37.619 51.8834 37.6406 41.2519 35.8796 32.9329C34.9149 28.3756 33.6206 25.6629 32.3962 24.2226C31.5285 23.2019 30.5297 22.5393 28.3035 22.5393C26.0852 22.5393 25.1578 23.1922 24.3579 24.1516C23.1869 25.556 21.9386 28.2399 21.0315 32.8114C19.4611 40.7268 19.5078 50.6477 19.5567 61.0455C19.5653 62.8696 19.5739 64.7084 19.5739 66.5536C19.5739 84.8226 24.0628 95.2043 29.451 101.319Z" fill="url(#paint1_radial_1268_2433)"/>
<defs>
<linearGradient id="paint0_linear_1268_2433" x1="-28.8113" y1="4.15386" x2="116.893" y2="146.599" gradientUnits="userSpaceOnUse">
<stop stop-color="#FFC300"/>
<stop offset="0.729167" stop-color="#FF0070"/>
</linearGradient>
<radialGradient id="paint1_radial_1268_2433" cx="0" cy="0" r="1" gradientUnits="userSpaceOnUse" gradientTransform="translate(111.924 131.633) rotate(-110.07) scale(154.031 148.19)">
<stop stop-color="#BD00FF"/>
<stop offset="1" stop-color="#FF1737" stop-opacity="0"/>
</radialGradient>
</defs>
</svg>
