<?xml version="1.0" encoding="UTF-8"?>
<svg version="1.1" viewBox="0 0 381 86" xmlns="http://www.w3.org/2000/svg">
<title>Group Copy</title>
<g fill="none" fill-rule="evenodd">
<g transform="translate(-345 -582)" fill="#221E1F" fill-rule="nonzero">
<g transform="translate(284 102)">
<g transform="translate(61.687 480.01)">
<path id="b" d="m25.773 60.621c-4.921 0-9.357-1.089-13.31-3.267-3.872-2.178-6.937-5.1627-9.196-8.954-2.178-3.872-3.267-8.349-3.267-13.431v-33.759h14.399v33.275c0 2.662 0.444 4.9207 1.331 6.776s2.178 3.3073 3.872 4.356c1.775 0.968 3.872 1.452 6.292 1.452 3.63 0 6.413-1.089 8.349-3.267s2.904-5.2837 2.904-9.317v-33.275h14.399v33.759c0 5.082-1.089 9.559-3.267 13.431s-5.203 6.897-9.075 9.075c-3.872 2.0973-8.349 3.146-13.431 3.146z"/>
<path id="Shape" d="m91.414 60.621c-4.356 0-8.269-0.8873-11.737-2.662-3.388-1.8553-6.091-4.356-8.107-7.502-1.936-3.2267-2.945-6.8567-3.025-10.89v-18.392c0.08-4.0333 1.129-7.6633 3.146-10.89 2.016-3.2267 4.719-5.7273 8.107-7.502 3.468-1.8553 7.34-2.783 11.616-2.783 5.324 0 10.083 1.3713 14.278 4.114 4.275 2.662 7.623 6.292 10.043 10.89 2.5 4.5173 3.751 9.6397 3.751 15.367s-1.251 10.89-3.751 15.488c-2.42 4.5173-5.768 8.107-10.043 10.769-4.195 2.662-8.954 3.993-14.278 3.993zm-2.42-13.431c3.146 0 5.888-0.6857 8.228-2.057 2.339-1.452 4.194-3.4687 5.566-6.05 1.371-2.5813 2.057-5.5257 2.057-8.833s-0.686-6.2113-2.057-8.712c-1.372-2.5813-3.227-4.5577-5.566-5.929-2.34-1.452-5.082-2.178-8.228-2.178-3.066 0-5.808 0.726-8.228 2.178-2.34 1.3713-4.195 3.3477-5.566 5.929-1.291 2.5007-1.936 5.4047-1.936 8.712s0.645 6.2517 1.936 8.833c1.29 2.5813 3.146 4.598 5.566 6.05 2.42 1.3713 5.162 2.057 8.228 2.057zm-29.161 36.542v-82.522h14.278v15.488l-2.42 14.157 2.42 14.157v38.72h-14.278z"/>
<path id="Shape" d="m149.86 85.063c-6.212 0-11.657-1.13-16.335-3.388-4.598-2.178-8.309-5.284-11.132-9.317l9.196-9.3172c2.258 2.8233 4.84 4.9202 7.744 6.2922 2.984 1.452 6.493 2.178 10.527 2.178 5.162 0 9.236-1.291 12.221-3.872 2.984-2.5815 4.477-6.1712 4.477-10.769v-14.399l2.42-12.826-2.42-12.947v-15.488h14.278v55.539c0 5.6467-1.331 10.567-3.993 14.762-2.582 4.275-6.212 7.582-10.89 9.922-4.679 2.42-10.043 3.63-16.093 3.63zm-0.726-26.983c-5.163 0-9.842-1.2503-14.036-3.751-4.195-2.5813-7.502-6.0903-9.922-10.527-2.34-4.4367-3.509-9.3977-3.509-14.883s1.169-10.406 3.509-14.762c2.42-4.356 5.727-7.7843 9.922-10.285 4.194-2.5813 8.873-3.872 14.036-3.872 4.517 0 8.47 0.8873 11.858 2.662 3.468 1.7747 6.171 4.235 8.107 7.381s2.904 6.8163 2.904 11.011v15.972c0 4.114-1.009 7.7843-3.025 11.011-1.936 3.146-4.639 5.6063-8.107 7.381-3.388 1.7747-7.301 2.662-11.737 2.662zm2.904-13.31c3.065 0 5.727-0.6453 7.986-1.936 2.339-1.3713 4.154-3.2267 5.445-5.566 1.29-2.3393 1.936-5.082 1.936-8.228s-0.646-5.8887-1.936-8.228c-1.291-2.3393-3.106-4.1543-5.445-5.445-2.259-1.3713-4.921-2.057-7.986-2.057-3.066 0-5.808 0.6857-8.228 2.057-2.34 1.2907-4.155 3.1057-5.445 5.445-1.291 2.3393-1.936 5.082-1.936 8.228 0 2.9847 0.645 5.687 1.936 8.107 1.29 2.42 3.105 4.3157 5.445 5.687 2.339 1.2907 5.082 1.936 8.228 1.936z"/>
<path id="a" d="m190.53 59.411v-58.201h14.278v58.201h-14.278zm14.278-32.307-5.203-3.025c0.322-7.26 2.137-13.068 5.445-17.424 3.388-4.4367 8.349-6.655 14.883-6.655 2.904 0 5.485 0.5243 7.744 1.573 2.339 0.968 4.477 2.541 6.413 4.719l-9.196 10.043c-0.968-1.1293-2.098-1.936-3.388-2.42-1.291-0.484-2.743-0.726-4.356-0.726-3.63 0-6.615 1.1293-8.954 3.388-2.259 2.2587-3.388 5.7677-3.388 10.527z"/>
<path d="m260.53 60.621c-5.727 0-10.93-1.331-15.609-3.993-4.598-2.7427-8.268-6.413-11.011-11.011s-4.114-9.7607-4.114-15.488c0-5.6467 1.371-10.729 4.114-15.246s6.413-8.107 11.011-10.769c4.679-2.7427 9.882-4.114 15.609-4.114 5.808 0 11.051 1.331 15.73 3.993s8.349 6.292 11.011 10.89c2.743 4.5173 4.114 9.5993 4.114 15.246 0 5.7273-1.371 10.89-4.114 15.488-2.662 4.598-6.332 8.2683-11.011 11.011-4.679 2.662-9.922 3.993-15.73 3.993zm0-13.552c3.227 0 6.05-0.726 8.47-2.178s4.316-3.4283 5.687-5.929c1.371-2.5813 2.057-5.5257 2.057-8.833 0-3.2267-0.726-6.05-2.178-8.47-1.371-2.5007-3.267-4.477-5.687-5.929-2.339-1.452-5.122-2.178-8.349-2.178-3.065 0-5.808 0.726-8.228 2.178s-4.316 3.4283-5.687 5.929c-1.371 2.42-2.057 5.2837-2.057 8.591 0 3.2267 0.686 6.1307 2.057 8.712 1.371 2.5007 3.267 4.477 5.687 5.929s5.163 2.178 8.228 2.178z"/>
<polygon points="312.4 59.411 289.65 1.21 304.41 1.21 319.41 43.56 315.06 43.681 330.18 1.21 339.38 1.21 354.5 43.681 350.15 43.56 365.27 1.21 379.91 1.21 357.17 59.411 347.85 59.411 332.6 19.118 336.96 19.118 321.59 59.411"/>
</g>
</g>
</g>
</g>
</svg>
